HIERARCHY
ROOT hip
{
  OFFSET 0 0 0
  CHANNELS 6 Xposition Yposition Zposition Zrotation Yrotation Xrotation
  JOINT abdomen
  {
    OFFSET 0 20.6881 -0.73152
    CHANNELS 3 Zrotation Xrotation Yrotation
    JOINT chest
    {
      OFFSET 0 11.7043 -0.48768
      CHANNELS 3 Zrotation Xrotation Yrotation
      JOINT neck
      {
        OFFSET 0 22.1894 -2.19456
        CHANNELS 3 Zrotation Xrotation Yrotation
        JOINT head
        {
          OFFSET -0.24384 7.07133 1.2192
          CHANNELS 3 Zrotation Xrotation Yrotation
          JOINT leftEye
          {
            OFFSET 4.14528 8.04674 8.04672
            CHANNELS 3 Zrotation Xrotation Yrotation
            End Site
            {
              OFFSET 1 0 0
            }
          }
          JOINT rightEye
          {
            OFFSET -3.6576 8.04674 8.04672
            CHANNELS 3 Zrotation Xrotation Yrotation
            End Site
            {
              OFFSET 1 0 0
            }
          }
        }
      }
      JOINT rCollar
      {
        OFFSET -2.68224 19.2634 -4.8768
        CHANNELS 3 Zrotation Xrotation Yrotation
        JOINT rShldr
        {
          OFFSET -8.77824 -1.95073 1.46304
          CHANNELS 3 Zrotation Xrotation Yrotation
          JOINT rForeArm
          {
            OFFSET -28.1742 -1.7115 0.48768
            CHANNELS 3 Zrotation Xrotation Yrotation
            JOINT rHand
            {
              OFFSET -22.5879 0.773209 7.07136
              CHANNELS 3 Zrotation Xrotation Yrotation
              JOINT rThumb1
              {
                OFFSET -1.2192 -0.487915 3.41376
                CHANNELS 3 Zrotation Xrotation Yrotation
                JOINT rThumb2
                {
                  OFFSET -3.37035 -0.52449 3.41376
                  CHANNELS 3 Zrotation Xrotation Yrotation
                  End Site
                  {
                    OFFSET -1.78271 -1.18214 1.43049
                  }
                }
              }
              JOINT rIndex1
              {
                OFFSET -7.75947 0.938293 5.60832
                CHANNELS 3 Zrotation Xrotation Yrotation
                JOINT rIndex2
                {
                  OFFSET -2.54057 -0.884171 1.56538
                  CHANNELS 3 Zrotation Xrotation Yrotation
                  End Site
                  {
                    OFFSET -1.62519 -0.234802 1.16502
                  }
                }
              }
              JOINT rMid1
              {
                OFFSET -8.24714 1.18213 3.41376
                CHANNELS 3 Zrotation Xrotation Yrotation
                JOINT rMid2
                {
                  OFFSET -3.10165 -0.590103 1.0647
                  CHANNELS 3 Zrotation Xrotation Yrotation
                  End Site
                  {
                    OFFSET -2.48547 -0.328903 0.83742
                  }
                }
              }
              JOINT rRing1
              {
                OFFSET -8.82822 0.546677 1.51678
                CHANNELS 3 Zrotation Xrotation Yrotation
                JOINT rRing2
                {
                  OFFSET -2.60934 -0.819778 -0.0198488
                  CHANNELS 3 Zrotation Xrotation Yrotation
                  End Site
                  {
                    OFFSET -2.33842 -0.294052 0.168128
                  }
                }
              }
              JOINT rPinky1
              {
                OFFSET -8.27202 -0.0477905 -0.4584
                CHANNELS 3 Zrotation Xrotation Yrotation
                JOINT rPinky2
                {
                  OFFSET -1.82734 -0.647385 -0.700984
                  CHANNELS 3 Zrotation Xrotation Yrotation
                  End Site
                  {
                    OFFSET -1.69225 -0.51767 -0.607171
                  }
                }
              }
            }
          }
        }
      }
      JOINT lCollar
      {
        OFFSET 2.68224 19.2634 -4.8768
        CHANNELS 3 Zrotation Xrotation Yrotation
        JOINT lShldr
        {
          OFFSET 8.77824 -1.95073 1.46304
          CHANNELS 3 Zrotation Xrotation Yrotation
          JOINT lForeArm
          {
            OFFSET 28.1742 -1.7115 0.48768
            CHANNELS 3 Zrotation Xrotation Yrotation
            JOINT lHand
            {
              OFFSET 22.5879 0.773209 7.07136
              CHANNELS 3 Zrotation Xrotation Yrotation
              JOINT lThumb1
              {
                OFFSET 1.2192 -0.487915 3.41376
                CHANNELS 3 Zrotation Xrotation Yrotation
                JOINT lThumb2
                {
                  OFFSET 3.37035 -0.52449 3.41376
                  CHANNELS 3 Zrotation Xrotation Yrotation
                  End Site
                  {
                    OFFSET 1.78271 -1.18214 1.43049
                  }
                }
              }
              JOINT lIndex1
              {
                OFFSET 7.75947 0.938293 5.60832
                CHANNELS 3 Zrotation Xrotation Yrotation
                JOINT lIndex2
                {
                  OFFSET 2.54057 -0.884171 1.56538
                  CHANNELS 3 Zrotation Xrotation Yrotation
                  End Site
                  {
                    OFFSET 1.62519 -0.234802 1.16502
                  }
                }
              }
              JOINT lMid1
              {
                OFFSET 8.24714 1.18213 3.41376
                CHANNELS 3 Zrotation Xrotation Yrotation
                JOINT lMid2
                {
                  OFFSET 3.10165 -0.590103 1.0647
                  CHANNELS 3 Zrotation Xrotation Yrotation
                  End Site
                  {
                    OFFSET 2.48547 -0.328903 0.83742
                  }
                }
              }
              JOINT lRing1
              {
                OFFSET 8.82822 0.546677 1.51678
                CHANNELS 3 Zrotation Xrotation Yrotation
                JOINT lRing2
                {
                  OFFSET 2.60934 -0.819778 -0.0198488
                  CHANNELS 3 Zrotation Xrotation Yrotation
                  End Site
                  {
                    OFFSET 2.33842 -0.294052 0.168128
                  }
                }
              }
              JOINT lPinky1
              {
                OFFSET 8.27202 -0.0477905 -0.4584
                CHANNELS 3 Zrotation Xrotation Yrotation
                JOINT lPinky2
                {
                  OFFSET 1.82734 -0.647385 -0.700984
                  CHANNELS 3 Zrotation Xrotation Yrotation
                  End Site
                  {
                    OFFSET 1.69225 -0.51767 -0.607171
                  }
                }
              }
            }
          }
        }
      }
    }
  }
  JOINT rButtock
  {
    OFFSET -8.77824 4.35084 1.2192
    CHANNELS 3 Zrotation Xrotation Yrotation
    JOINT rThigh
    {
      OFFSET 0 -1.70687 -2.19456
      CHANNELS 3 Zrotation Xrotation Yrotation
      JOINT rShin
      {
        OFFSET 0 -36.8199 0.73152
        CHANNELS 3 Zrotation Xrotation Yrotation
        JOINT rFoot
        {
          OFFSET 0.73152 -45.1104 -5.12064
          CHANNELS 3 Zrotation Xrotation Yrotation
          End Site
          {
            OFFSET -1.1221 -3.69964 12.103
          }
        }
      }
    }
  }
  JOINT lButtock
  {
    OFFSET 8.77824 4.35084 1.2192
    CHANNELS 3 Zrotation Xrotation Yrotation
    JOINT lThigh
    {
      OFFSET 0 -1.70687 -2.19456
      CHANNELS 3 Zrotation Xrotation Yrotation
      JOINT lShin
      {
        OFFSET 0 -36.8199 0.73152
        CHANNELS 3 Zrotation Xrotation Yrotation
        JOINT lFoot
        {
          OFFSET -0.73152 -45.1104 -5.12064
          CHANNELS 3 Zrotation Xrotation Yrotation
          End Site
          {
            OFFSET 1.1221 -3.69964 12.103
          }
        }
      }
    }
  }
}
MOTION
Frames:	6
Frame Time:	0.00833333
-46.0954 81.9514 56.7087 -547.829 99.6274 183.635 5.01608 -5.32333 1.71486 1.8816 7.33652 0.325395 -1.41458 -1.58575 0.430188 -1.59339 1.74681 1.70426 -0.0 0.0 0.0 -0.0 0.0 0.0 -1.09532e-14 7.079e-13 -1.12978e-13 64.4004 15.7361 6.32894 -14.9898 -7.78255 27.5652 -0.341404 16.4061 2.37141 4.23838e-10 -5.06474e-11 5.56248e-10 7.39107e-10 -7.84083e-11 9.54205e-10 4.23847e-10 -5.06365e-11 5.56228e-10 7.73091 5.47488 0.417314 4.23832e-10 -5.06468e-11 5.56243e-10 2.90554 0.965183 0.102902 4.23844e-10 -5.06423e-11 5.56241e-10 10.2786 0.731801 0.0259123 4.23832e-10 -5.06431e-11 5.56242e-10 2.22167 -0.733487 -0.20892 -1.11013e-14 7.07889e-13 -1.13412e-13 -78.8299 34.6716 -1.8256 16.4096 -9.07363 -30.5417 0.415373 -18.0157 2.61974 2.15403e-10 -2.08938e-10 -4.63421e-10 3.76595e-10 -3.63411e-10 -7.98467e-10 2.15399e-10 -2.08935e-10 -4.63409e-10 -7.73091 5.47488 -0.417314 2.15404e-10 -2.08938e-10 -4.63419e-10 -2.90554 0.965183 -0.102902 2.15398e-10 -2.08938e-10 -4.6342e-10 -10.2786 0.731801 -0.0259123 2.1541e-10 -2.08939e-10 -4.63429e-10 -2.22167 -0.733487 0.20892 -2.03217e-16 0.0 -3.88251e-19 3.44622 -29.8725 4.76137 -0.22858 32.434 0.340991 -0.270138 8.3087 -11.0218 2.03217e-16 0.0 3.88251e-19 2.48286 -40.4732 3.78746 0.71545 53.2979 -1.16368 2.73055 -9.06459 7.83486
-45.7346 81.9165 56.9139 -549.111 99.1334 182.39 4.99283 -5.31165 1.7118 1.8372 7.33631 0.325311 -1.57815 -1.62743 0.309512 -1.41259 1.69334 1.51192 -0.0 0.0 0.0 -0.0 0.0 0.0 -1.05513e-14 -9.94637e-13 7.82808e-14 64.0241 16.1347 6.79485 -15.2386 -7.99958 28.0789 -0.314446 15.775 2.27517 -6.85639e-10 -7.96803e-10 4.84007e-10 -1.17838e-09 -1.38045e-09 8.44876e-10 -6.85632e-10 -7.96796e-10 4.83988e-10 7.73091 5.47488 0.417314 -6.85649e-10 -7.96808e-10 4.84008e-10 2.90554 0.965183 0.102902 -6.85633e-10 -7.96801e-10 4.84001e-10 10.2786 0.731801 0.0259123 -6.85648e-10 -7.96801e-10 4.84005e-10 2.22167 -0.733487 -0.20892 -1.06914e-14 -9.94639e-13 7.78863e-14 -78.9064 34.7746 -1.90278 16.3362 -9.0037 -30.385 0.415043 -18.0089 2.61868 -3.19627e-10 1.98927e-10 -5.55758e-12 -5.5506e-10 3.42321e-10 -1.2927e-11 -3.19631e-10 1.9893e-10 -5.55106e-12 -7.73091 5.47488 -0.417314 -3.19625e-10 1.98926e-10 -5.56022e-12 -2.90554 0.965183 -0.102902 -3.19635e-10 1.98928e-10 -5.55589e-12 -10.2786 0.731801 -0.0259123 -3.19621e-10 1.98928e-10 -5.56202e-12 -2.22167 -0.733487 0.20892 -2.03217e-16 0.0 -3.88251e-19 3.38147 -29.4879 4.40345 -0.229109 32.359 0.337409 -0.208283 8.61937 -11.2473 2.03217e-16 0.0 3.88251e-19 2.27934 -40.9114 3.82048 0.672816 52.2283 -1.1151 2.71606 -9.3328 7.71672
-45.3456 81.9272 57.1205 -550.325 98.6721 181.175 4.97612 -5.30323 1.71616 1.79719 7.34643 0.327131 -1.74782 -1.6869 0.190966 -1.22992 1.65157 1.32593 -0.0 0.0 0.0 -0.0 0.0 0.0 -9.40708e-15 -2.52007e-12 2.52563e-13 63.6446 16.5129 7.25825 -15.497 -8.22843 28.6173 -0.289822 15.1596 2.18205 -1.71413e-09 -1.4292e-09 3.14927e-10 -2.95731e-09 -2.48557e-09 5.66932e-10 -1.71413e-09 -1.4292e-09 3.14909e-10 7.73091 5.47488 0.417314 -1.71415e-09 -1.42921e-09 3.14933e-10 2.90554 0.965183 0.102902 -1.71413e-09 -1.4292e-09 3.14921e-10 10.2786 0.731801 0.0259123 -1.71414e-09 -1.4292e-09 3.14928e-10 2.22167 -0.733487 -0.20892 -9.53442e-15 -2.52007e-12 2.5222e-13 -78.9851 34.8853 -1.97788 16.2596 -8.93081 -30.222 0.414148 -17.9903 2.61579 -8.08053e-10 5.61269e-10 4.82048e-10 -1.40602e-09 9.69499e-10 8.24538e-10 -8.08057e-10 5.61273e-10 4.82048e-10 -7.73091 5.47488 -0.417314 -8.08049e-10 5.61267e-10 4.82041e-10 -2.90554 0.965183 -0.102902 -8.08064e-10 5.61272e-10 4.82049e-10 -10.2786 0.731801 -0.0259123 -8.08048e-10 5.61272e-10 4.82047e-10 -2.22167 -0.733487 0.20892 -2.03217e-16 0.0 -3.88251e-19 3.32768 -29.0662 4.04718 -0.228851 32.2251 0.332106 -0.150333 8.89243 -11.4492 2.03217e-16 0.0 3.88251e-19 2.09127 -41.3 3.8838 0.630388 51.0938 -1.06583 2.72596 -9.61699 7.67829
-44.9023 81.958 57.2623 -550.132 98.2311 181.288 4.95369 -5.31843 1.75993 1.7431 7.37427 0.340797 -1.88612 -1.7536 0.0745349 -1.06683 1.6477 1.13699 -0.0 0.0 0.0 -0.0 0.0 0.0 -7.07378e-15 -3.07888e-12 3.26951e-13 63.3157 16.8058 7.70172 -15.7528 -8.45961 29.1526 -0.270285 14.6396 2.1039 -2.25872e-09 -1.69379e-09 1.01943e-10 -3.90087e-09 -2.95011e-09 2.06322e-10 -2.25872e-09 -1.69379e-09 1.01927e-10 7.73091 5.47488 0.417314 -2.25874e-09 -1.6938e-09 1.01953e-10 2.90554 0.965183 0.102902 -2.25872e-09 -1.69379e-09 1.01938e-10 10.2786 0.731801 0.0259123 -2.25874e-09 -1.69379e-09 1.01946e-10 2.22167 -0.733487 -0.20892 -7.18955e-15 -3.07887e-12 3.26653e-13 -79.0408 35.0004 -2.02827 16.1929 -8.86759 -30.0807 0.413319 -17.9731 2.61312 -1.03191e-09 7.22826e-10 8.42224e-10 -1.79717e-09 1.24965e-09 1.44476e-09 -1.03192e-09 7.2283e-10 8.4222e-10 -7.73091 5.47488 -0.417314 -1.03191e-09 7.22823e-10 8.42214e-10 -2.90554 0.965183 -0.102902 -1.03193e-09 7.22829e-10 8.42224e-10 -10.2786 0.731801 -0.0259123 -1.03191e-09 7.2283e-10 8.42224e-10 -2.22167 -0.733487 0.20892 -2.03217e-16 0.0 -3.88251e-19 3.28617 -28.6125 3.72687 -0.227631 32.0264 0.32563 -0.101042 9.10709 -11.6266 2.03217e-16 0.0 3.88251e-19 1.932 -41.6523 4.01505 0.588981 49.9144 -1.01631 2.73831 -9.91056 7.64918
-44.4389 82.002 57.4083 -550.144 97.9952 181.166 4.93498 -5.3748 1.86319 1.66096 7.43263 0.37243 -1.98376 -1.83893 -0.0418067 -0.928185 1.72063 0.940444 -0.0 0.0 0.0 -0.0 0.0 0.0 -4.69003e-15 -2.13602e-12 2.47016e-13 63.063 16.9789 8.11402 -16.0039 -8.69101 29.6805 -0.256703 14.264 2.0477 -2.03833e-09 -1.37372e-09 -1.87101e-10 -3.524e-09 -2.39674e-09 -2.96352e-10 -2.03833e-09 -1.37372e-09 -1.87115e-10 7.73091 5.47488 0.417314 -2.03835e-09 -1.37373e-09 -1.87091e-10 2.90554 0.965183 0.102902 -2.03833e-09 -1.37372e-09 -1.87106e-10 10.2786 0.731801 0.0259123 -2.03834e-09 -1.37372e-09 -1.87099e-10 2.22167 -0.733487 -0.20892 -4.79644e-15 -2.13601e-12 2.46759e-13 -79.0603 35.1243 -2.04658 16.1426 -8.82015 -29.9743 0.41308 -17.968 2.61232 -8.13367e-10 6.06795e-10 9.98148e-10 -1.4199e-09 1.05047e-09 1.71714e-09 -8.13371e-10 6.06798e-10 9.98145e-10 -7.73091 5.47488 -0.417314 -8.13363e-10 6.06792e-10 9.9814e-10 -2.90554 0.965183 -0.102902 -8.13379e-10 6.06797e-10 9.98148e-10 -10.2786 0.731801 -0.0259123 -8.13363e-10 6.06797e-10 9.98146e-10 -2.22167 -0.733487 0.20892 -2.03217e-16 0.0 -3.88251e-19 3.26104 -28.1214 3.44736 -0.225308 31.7511 0.317989 -0.0651337 9.24364 -11.7763 2.03217e-16 0.0 3.88251e-19 1.82008 -41.9653 4.24506 0.549154 48.6923 -0.967285 2.75983 -10.2526 7.63624
-44.0217 82.0462 57.583 -551.103 97.7402 180.216 4.92261 -5.45742 2.00507 1.56354 7.51396 0.415583 -2.06067 -1.94379 -0.157384 -0.801992 1.84577 0.741946 -0.0 0.0 0.0 -0.0 0.0 0.0 -2.07484e-15 -2.20727e-13 6.77545e-14 62.8575 17.0731 8.50549 -16.2559 -8.92711 30.2149 -0.246461 13.981 2.00541 -1.32572e-09 -6.54182e-10 -5.65013e-10 -2.29806e-09 -1.14841e-09 -9.59489e-10 -1.32572e-09 -6.54185e-10 -5.65024e-10 7.73091 5.47488 0.417314 -1.32573e-09 -6.54191e-10 -5.65006e-10 2.90554 0.965183 0.102902 -1.32572e-09 -6.54184e-10 -5.65019e-10 10.2786 0.731801 0.0259123 -1.32573e-09 -6.54182e-10 -5.65014e-10 2.22167 -0.733487 -0.20892 -2.17117e-15 -2.20737e-13 6.75402e-14 -79.0593 35.257 -2.0452 16.1008 -8.78098 -29.886 0.412974 -17.9655 2.61193 -3.08567e-10 3.07783e-10 1.04528e-09 -5.45564e-10 5.35392e-10 1.80485e-09 -3.08571e-10 3.07784e-10 1.04528e-09 -7.73091 5.47488 -0.417314 -3.08564e-10 3.0778e-10 1.04528e-09 -2.90554 0.965183 -0.102902 -3.08577e-10 3.07783e-10 1.04528e-09 -10.2786 0.731801 -0.0259123 -3.08562e-10 3.07782e-10 1.04528e-09 -2.22167 -0.733487 0.20892 -2.03217e-16 0.0 -3.88251e-19 3.25029 -27.5928 3.19178 -0.222091 31.4057 0.308987 -0.0402964 9.3182 -11.8993 2.03217e-16 0.0 3.88251e-19 1.7453 -42.2334 4.548 0.510743 47.4179 -0.9186 2.79924 -10.6328 7.6688
